<!DOCTYPE svg PUBLIC "-//W3C//DTD SVG 1.1//EN" "http://www.w3.org/Graphics/SVG/1.1/DTD/svg11.dtd">
<!-- Uploaded to: SVG Repo, www.svgrepo.com, Transformed by: SVG Repo Mixer Tools -->
<svg width="64px" height="64px" viewBox="0 -0.5 25 25" fill="none" xmlns="http://www.w3.org/2000/svg" transform="matrix(-1, 0, 0, 1, 0, 0)">
<g id="SVGRepo_bgCarrier" stroke-width="0"/>
<g id="SVGRepo_tracerCarrier" stroke-linecap="round" stroke-linejoin="round"/>
<g id="SVGRepo_iconCarrier"> <path fill-rule="evenodd" clip-rule="evenodd" d="M10.692 17.95C10.6909 18.5286 10.2212 18.9968 9.64268 18.996C9.06414 18.9953 8.59564 18.5259 8.59601 17.9474C8.59638 17.3688 9.06547 16.9 9.64401 16.9C9.92222 16.9003 10.1889 17.0111 10.3855 17.208C10.582 17.4049 10.6923 17.6718 10.692 17.95V17.95Z" stroke="#ffffff" stroke-width="1.5" stroke-linecap="round" stroke-linejoin="round"/> <path fill-rule="evenodd" clip-rule="evenodd" d="M16.281 17.95C16.2799 18.5286 15.8102 18.9968 15.2317 18.996C14.6531 18.9953 14.1846 18.5259 14.185 17.9474C14.1854 17.3688 14.6545 16.9 15.233 16.9C15.5112 16.9003 15.7779 17.0111 15.9745 17.208C16.171 17.4049 16.2813 17.6718 16.281 17.95V17.95Z" stroke="#ffffff" stroke-width="1.5" stroke-linecap="round" stroke-linejoin="round"/> <path fill-rule="evenodd" clip-rule="evenodd" d="M20.1 7.80005H9.99303L9.29303 13.4C9.29303 14.1732 9.91983 14.8 10.693 14.8L18.5 14C18.9917 13.9998 19.4472 13.7417 19.7 13.32L21.3 9.92005C21.5593 9.48764 21.5661 8.9492 21.3177 8.51041C21.0694 8.07163 20.6042 7.80029 20.1 7.80005Z" stroke="#ffffff" stroke-width="1.5" stroke-linecap="round" stroke-linejoin="round"/> <path d="M7.364 9.639C7.77821 9.639 8.114 9.30322 8.114 8.889C8.114 8.47479 7.77821 8.139 7.364 8.139V9.639ZM4.5 8.139C4.08579 8.139 3.75 8.47479 3.75 8.889C3.75 9.30322 4.08579 9.639 4.5 9.639V8.139ZM7.364 11.972C7.77821 11.972 8.114 11.6362 8.114 11.222C8.114 10.8078 7.77821 10.472 7.364 10.472V11.972ZM6.432 10.472C6.01779 10.472 5.682 10.8078 5.682 11.222C5.682 11.6362 6.01779 11.972 6.432 11.972V10.472ZM9.2653 7.98152C9.36555 8.38342 9.77262 8.62796 10.1745 8.52771C10.5764 8.42746 10.821 8.02038 10.7207 7.61848L9.2653 7.98152ZM9.324 5.118L10.0517 4.93648L10.0505 4.93171L9.324 5.118ZM9.171 5V5.75002L9.1754 5.74999L9.171 5ZM6.5 4.25C6.08579 4.25 5.75 4.58579 5.75 5C5.75 5.41422 6.08579 5.75 6.5 5.75V4.25ZM7.364 8.139H4.5V9.639H7.364V8.139ZM7.364 10.472H6.432V11.972H7.364V10.472ZM10.7207 7.61848L10.0517 4.93648L8.5963 5.29952L9.2653 7.98152L10.7207 7.61848ZM10.0505 4.93171C9.94713 4.52862 9.58273 4.24758 9.1666 4.25002L9.1754 5.74999C8.90333 5.75158 8.66508 5.56784 8.59751 5.3043L10.0505 4.93171ZM9.171 4.25H6.5V5.75H9.171V4.25Z" fill="#ffffff"/> </g>
</svg>