<!DOCTYPE svg PUBLIC "-//W3C//DTD SVG 1.1//EN" "http://www.w3.org/Graphics/SVG/1.1/DTD/svg11.dtd">
<!-- Uploaded to: SVG Repo, www.svgrepo.com, Transformed by: SVG Repo Mixer Tools -->
<svg width="64px" height="64px" viewBox="0 0 17 17" version="1.1" xmlns="http://www.w3.org/2000/svg" xmlns:xlink="http://www.w3.org/1999/xlink" fill="#000000">
<g id="SVGRepo_bgCarrier" stroke-width="0"/>
<g id="SVGRepo_tracerCarrier" stroke-linecap="round" stroke-linejoin="round"/>
<g id="SVGRepo_iconCarrier"> <path d="M2.75 12.5c-0.965 0-1.75 0.785-1.75 1.75s0.785 1.75 1.75 1.75 1.75-0.785 1.75-1.75-0.785-1.75-1.75-1.75zM2.75 15c-0.414 0-0.75-0.337-0.75-0.75s0.336-0.75 0.75-0.75 0.75 0.337 0.75 0.75-0.336 0.75-0.75 0.75zM11.25 12.5c-0.965 0-1.75 0.785-1.75 1.75s0.785 1.75 1.75 1.75 1.75-0.785 1.75-1.75-0.785-1.75-1.75-1.75zM11.25 15c-0.414 0-0.75-0.337-0.75-0.75s0.336-0.75 0.75-0.75 0.75 0.337 0.75 0.75-0.336 0.75-0.75 0.75zM13.371 2l-0.302 2h-13.143l1.118 8.036h11.913l1.038-7.463 0.236-1.573h2.769v-1h-3.629zM12.926 5l-0.139 1h-11.574l-0.139-1h11.852zM1.914 11.036l-0.561-4.036h11.295l-0.561 4.036h-10.173z" fill="#ffffff"/> </g>
</svg>